<mxfile host="app.diagrams.net" modified="2023-12-06T21:42:02.630Z" agent="Mozilla/5.0 (Windows NT 10.0; Win64; x64) AppleWebKit/537.36 (KHTML, like Gecko) Chrome/119.0.0.0 Safari/537.36" version="22.1.5" etag="2qelQ0gwLiHa4GEx4ZtB" type="device">
  <diagram id="FiXUJnzLlhFP-MB1lQGa" name="Page-1">
    <mxGraphModel dx="882" dy="578" grid="1" gridSize="10" guides="1" tooltips="1" connect="1" arrows="1" fold="1" page="1" pageScale="1" pageWidth="850" pageHeight="1100" math="0" shadow="0">
      <root>
        <mxCell id="0" />
        <mxCell id="1" parent="0" />
        <mxCell id="GoCZxpnqeddnjcGpEQJ_-1" value="" style="swimlane;startSize=0;" vertex="1" parent="1">
          <mxGeometry x="40" y="160" width="600" height="400" as="geometry" />
        </mxCell>
        <mxCell id="GoCZxpnqeddnjcGpEQJ_-12" style="edgeStyle=orthogonalEdgeStyle;rounded=0;orthogonalLoop=1;jettySize=auto;html=1;exitX=0.5;exitY=1;exitDx=0;exitDy=0;entryX=0;entryY=0.5;entryDx=0;entryDy=0;" edge="1" parent="GoCZxpnqeddnjcGpEQJ_-1" source="GoCZxpnqeddnjcGpEQJ_-2" target="GoCZxpnqeddnjcGpEQJ_-6">
          <mxGeometry relative="1" as="geometry" />
        </mxCell>
        <mxCell id="GoCZxpnqeddnjcGpEQJ_-2" value="Image" style="rounded=1;whiteSpace=wrap;html=1;" vertex="1" parent="GoCZxpnqeddnjcGpEQJ_-1">
          <mxGeometry x="40" y="40" width="120" height="60" as="geometry" />
        </mxCell>
        <mxCell id="GoCZxpnqeddnjcGpEQJ_-13" style="edgeStyle=orthogonalEdgeStyle;rounded=0;orthogonalLoop=1;jettySize=auto;html=1;exitX=0.5;exitY=1;exitDx=0;exitDy=0;" edge="1" parent="GoCZxpnqeddnjcGpEQJ_-1" source="GoCZxpnqeddnjcGpEQJ_-3" target="GoCZxpnqeddnjcGpEQJ_-6">
          <mxGeometry relative="1" as="geometry" />
        </mxCell>
        <mxCell id="GoCZxpnqeddnjcGpEQJ_-3" value="Text" style="rounded=1;whiteSpace=wrap;html=1;" vertex="1" parent="GoCZxpnqeddnjcGpEQJ_-1">
          <mxGeometry x="240" y="40" width="120" height="60" as="geometry" />
        </mxCell>
        <mxCell id="GoCZxpnqeddnjcGpEQJ_-14" style="edgeStyle=orthogonalEdgeStyle;rounded=0;orthogonalLoop=1;jettySize=auto;html=1;exitX=0.5;exitY=1;exitDx=0;exitDy=0;entryX=1;entryY=0.5;entryDx=0;entryDy=0;" edge="1" parent="GoCZxpnqeddnjcGpEQJ_-1" source="GoCZxpnqeddnjcGpEQJ_-4" target="GoCZxpnqeddnjcGpEQJ_-6">
          <mxGeometry relative="1" as="geometry" />
        </mxCell>
        <mxCell id="GoCZxpnqeddnjcGpEQJ_-4" value="Author" style="rounded=1;whiteSpace=wrap;html=1;" vertex="1" parent="GoCZxpnqeddnjcGpEQJ_-1">
          <mxGeometry x="440" y="40" width="120" height="60" as="geometry" />
        </mxCell>
        <mxCell id="GoCZxpnqeddnjcGpEQJ_-15" style="edgeStyle=orthogonalEdgeStyle;rounded=0;orthogonalLoop=1;jettySize=auto;html=1;exitX=0.5;exitY=1;exitDx=0;exitDy=0;entryX=0.5;entryY=0;entryDx=0;entryDy=0;" edge="1" parent="GoCZxpnqeddnjcGpEQJ_-1" source="GoCZxpnqeddnjcGpEQJ_-6" target="GoCZxpnqeddnjcGpEQJ_-7">
          <mxGeometry relative="1" as="geometry" />
        </mxCell>
        <mxCell id="GoCZxpnqeddnjcGpEQJ_-6" value="Fusion" style="rounded=1;whiteSpace=wrap;html=1;" vertex="1" parent="GoCZxpnqeddnjcGpEQJ_-1">
          <mxGeometry x="240" y="160" width="120" height="60" as="geometry" />
        </mxCell>
        <mxCell id="GoCZxpnqeddnjcGpEQJ_-7" value="Model" style="rounded=1;whiteSpace=wrap;html=1;" vertex="1" parent="GoCZxpnqeddnjcGpEQJ_-1">
          <mxGeometry x="240" y="280" width="120" height="60" as="geometry" />
        </mxCell>
        <mxCell id="GoCZxpnqeddnjcGpEQJ_-9" style="edgeStyle=orthogonalEdgeStyle;rounded=0;orthogonalLoop=1;jettySize=auto;html=1;exitX=0;exitY=0.5;exitDx=0;exitDy=0;" edge="1" parent="1" source="GoCZxpnqeddnjcGpEQJ_-5" target="GoCZxpnqeddnjcGpEQJ_-2">
          <mxGeometry relative="1" as="geometry" />
        </mxCell>
        <mxCell id="GoCZxpnqeddnjcGpEQJ_-10" style="edgeStyle=orthogonalEdgeStyle;rounded=0;orthogonalLoop=1;jettySize=auto;html=1;exitX=0.5;exitY=1;exitDx=0;exitDy=0;entryX=0.5;entryY=0;entryDx=0;entryDy=0;" edge="1" parent="1" source="GoCZxpnqeddnjcGpEQJ_-5" target="GoCZxpnqeddnjcGpEQJ_-3">
          <mxGeometry relative="1" as="geometry" />
        </mxCell>
        <mxCell id="GoCZxpnqeddnjcGpEQJ_-11" style="edgeStyle=orthogonalEdgeStyle;rounded=0;orthogonalLoop=1;jettySize=auto;html=1;exitX=1;exitY=0.5;exitDx=0;exitDy=0;entryX=0.5;entryY=0;entryDx=0;entryDy=0;" edge="1" parent="1" source="GoCZxpnqeddnjcGpEQJ_-5" target="GoCZxpnqeddnjcGpEQJ_-4">
          <mxGeometry relative="1" as="geometry" />
        </mxCell>
        <mxCell id="GoCZxpnqeddnjcGpEQJ_-5" value="Post" style="rounded=1;whiteSpace=wrap;html=1;" vertex="1" parent="1">
          <mxGeometry x="280" y="40" width="120" height="60" as="geometry" />
        </mxCell>
        <mxCell id="GoCZxpnqeddnjcGpEQJ_-8" value="Harmful probability" style="rounded=1;whiteSpace=wrap;html=1;" vertex="1" parent="1">
          <mxGeometry x="280" y="600" width="120" height="60" as="geometry" />
        </mxCell>
        <mxCell id="GoCZxpnqeddnjcGpEQJ_-16" style="edgeStyle=orthogonalEdgeStyle;rounded=0;orthogonalLoop=1;jettySize=auto;html=1;exitX=0.5;exitY=1;exitDx=0;exitDy=0;entryX=0.5;entryY=0;entryDx=0;entryDy=0;" edge="1" parent="1" source="GoCZxpnqeddnjcGpEQJ_-7" target="GoCZxpnqeddnjcGpEQJ_-8">
          <mxGeometry relative="1" as="geometry" />
        </mxCell>
      </root>
    </mxGraphModel>
  </diagram>
</mxfile>
